<svg xmlns="http://www.w3.org/2000/svg" width="146" height="220" viewBox="0 0 146 220"><defs><linearGradient id="steel" x1="0" y1="0" x2="0" y2="1"><stop stop-color="#08111a"/><stop offset=".18" stop-color="#718591"/><stop offset=".33" stop-color="#273e4d"/><stop offset=".65" stop-color="#050d15"/><stop offset=".87" stop-color="#425b6a"/><stop offset="1" stop-color="#111c24"/></linearGradient></defs><path d="M17 84H133V104H17Z" fill="url(#steel)" stroke="#08121c" stroke-width="2"/><path d="M20 88H130M20 101H130" stroke="#708a99" stroke-opacity=".65"/><path d="M20 94H130" stroke="#052637" stroke-width="5"/><rect x="26" y="78" width="14" height="32" rx="3" fill="url(#steel)" stroke="#4c6270"/><path d="M29 81V107M37 81V107" stroke="#8094a0" stroke-width="1"/><path d="M61 71H77L83 77V111L77 117H61L56 111V77Z" fill="#040b12" stroke="#536c7c"/><rect x="62" y="78" width="13" height="32" rx="2" fill="url(#steel)" stroke="#a0b5bf"/><circle cx="68.5" cy="74.5" r="1.6" fill="#92a4ac"/><circle cx="68.5" cy="113.5" r="1.6" fill="#92a4ac"/><path d="M12 1H23V10H12Z M12 210H23V219H12Z" fill="url(#steel)" stroke="#4a697c"/></svg>